<svg width="22" height="22" viewBox="0 0 22 22" fill="none" xmlns="http://www.w3.org/2000/svg">
<path d="M1 20.5488V1.6741C1 1.3018 1.3018 1 1.6741 1H20.5488C20.9212 1 21.2229 1.3018 21.2229 1.6741V20.5488C21.2229 20.9212 20.9212 21.2229 20.5488 21.2229H1.6741C1.3018 21.2229 1 20.9212 1 20.5488Z" stroke="white" stroke-opacity="0.9" stroke-width="1.2"/>
<path d="M14.4819 7.17923C13.7123 6.40965 12.3571 5.87435 11.1115 5.84084M11.1115 5.84084C9.62945 5.80095 8.30271 6.47141 8.30271 8.30274C8.30271 11.6732 14.4819 9.98798 14.4819 13.3585C14.4819 15.2808 12.8374 16.1068 11.1115 16.0447M11.1115 5.84084V3.80875M7.74097 14.482C8.46504 15.4474 9.81135 15.998 11.1115 16.0447M11.1115 16.0447V18.4142" stroke="white" stroke-opacity="0.9" stroke-width="1.2" stroke-linecap="round" stroke-linejoin="round"/>
</svg>
