<svg width="21" height="21" viewBox="0 0 21 21" fill="none" xmlns="http://www.w3.org/2000/svg">
<path d="M15.25 15.25L20 20" stroke="white" stroke-width="1.2" stroke-linecap="round" stroke-linejoin="round"/>
<path d="M15.25 15.25L20 20" stroke="#4E4095" stroke-width="1.2" stroke-linecap="round" stroke-linejoin="round"/>
<path d="M1 9.14286C1 13.64 4.64568 17.2857 9.14286 17.2857C11.3953 17.2857 13.4343 16.3711 14.9084 14.8931C16.3775 13.4202 17.2857 11.3876 17.2857 9.14286C17.2857 4.64568 13.64 1 9.14286 1C4.64568 1 1 4.64568 1 9.14286Z" stroke="white" stroke-width="1.2" stroke-linecap="round" stroke-linejoin="round"/>
<path d="M1 9.14286C1 13.64 4.64568 17.2857 9.14286 17.2857C11.3953 17.2857 13.4343 16.3711 14.9084 14.8931C16.3775 13.4202 17.2857 11.3876 17.2857 9.14286C17.2857 4.64568 13.64 1 9.14286 1C4.64568 1 1 4.64568 1 9.14286Z" stroke="#4E4095" stroke-width="1.2" stroke-linecap="round" stroke-linejoin="round"/>
</svg>
